<svg xmlns="http://www.w3.org/2000/svg" width="48" height="48" viewBox="0 0 48 48">
  <g id="Group_2" data-name="Group 2" transform="translate(-1566 -311)">
    <circle id="Ellipse_1" data-name="Ellipse 1" cx="24" cy="24" r="24" transform="translate(1566 311)" fill="#f7f676"/>
    <g id="Group_1" data-name="Group 1" transform="translate(849.154 -184.18)">
      <path id="Path_3" data-name="Path 3" d="M725.846,517.349V515.8a1.579,1.579,0,0,0,.047-.219,11.12,11.12,0,0,1,1.1-4.109,11.9,11.9,0,0,1,8.632-6.715c.491-.1.994-.15,1.491-.224h1.6l.7.1a11.911,11.911,0,0,1,8.965,6.061,1.433,1.433,0,0,0,.565.569,12.044,12.044,0,0,1,3.808,17.689c-.176.235-.361.463-.491.631l2.4,2.492c.053.055.108.108.163.161a.836.836,0,0,1,.238.986.854.854,0,0,1-.863.536c-2.993.014-5.986.039-8.978.045a30.129,30.129,0,0,1-3.455-.077,11.772,11.772,0,0,1-8.447-4.937.465.465,0,0,0-.427-.208c-1.963-.005-3.927-.031-5.89-.02a1.091,1.091,0,0,1-1.151-.638v-.458a7.338,7.338,0,0,1,.5-.613c.732-.736,1.476-1.46,2.214-2.189.072-.071.139-.148.211-.226-.055-.068-.1-.121-.137-.171a11.756,11.756,0,0,1-2.528-5.239C725.989,518.478,725.93,517.911,725.846,517.349Zm3.022,9.493c.064,0,.12.007.177.008l7.06.043a18.152,18.152,0,0,0,4.094-.279,10.31,10.31,0,1,0-12.624-10.521,10.152,10.152,0,0,0,2.837,7.6c.57.609.561,1-.023,1.582C729.879,525.784,729.384,526.309,728.868,526.842Zm23.263,5.23c-.547-.566-1.05-1.1-1.565-1.616-.551-.555-.567-.954-.04-1.518a10.341,10.341,0,0,0-.714-14.981,1.555,1.555,0,0,0-.181-.116c.012.1.015.169.029.232a10.992,10.992,0,0,1,.156,4.089,11.908,11.908,0,0,1-7.916,9.761,12.454,12.454,0,0,1-4.947.692c-.51-.015-1.02,0-1.53,0l-.044.071c.394.364.769.751,1.184,1.089a10.288,10.288,0,0,0,6.824,2.333c1.906-.02,3.811-.025,5.717-.033C750.1,532.069,751.1,532.073,752.131,532.073Z" transform="translate(0 0)"/>
      <path id="Path_5" data-name="Path 5" d="M811.138,608.041c-1.685,0-3.371,0-5.056,0a.854.854,0,0,1-.834-1.211.864.864,0,0,1,.855-.5q2.942,0,5.885,0h4.285a.847.847,0,0,1,.8.458.8.8,0,0,1-.025.842.885.885,0,0,1-.823.417Q813.681,608.037,811.138,608.041Z" transform="translate(-73.257 -94.009)"/>
      <path id="Path_6" data-name="Path 6" d="M811.173,651.23c1.695,0,3.39,0,5.085,0a.853.853,0,0,1,.832,1.212.864.864,0,0,1-.856.5q-2.657,0-5.313,0c-1.619,0-3.238,0-4.856,0a.853.853,0,0,1-.824-1.2.874.874,0,0,1,.877-.516C807.8,651.232,809.487,651.23,811.173,651.23Z" transform="translate(-73.254 -135.482)"/>
      <path id="Path_7" data-name="Path 7" d="M811.2,696.143c1.685,0,3.371,0,5.056,0a.854.854,0,0,1,.833,1.211.863.863,0,0,1-.855.5q-2.571,0-5.142,0c-1.676,0-3.352,0-5.028,0a.853.853,0,0,1-.826-1.2.873.873,0,0,1,.876-.517C807.81,696.145,809.5,696.143,811.2,696.143Z" transform="translate(-73.254 -176.963)"/>
    </g>
  </g>
</svg>
